<?xml version="1.0"?>
<svg version="1.1" xmlns="http://www.w3.org/2000/svg" x="0" y="0" viewBox="0 0 100 100" xml:space="preserve">
    <path d="M27.655 89.293l-4.44-2.563c-2.749-1.587-3.582-5.368-1.89-8.579L42.79 37.42l17.781 10.266L36.03 86.64c-1.935 3.071-5.625 4.24-8.375 2.653z"
          fill="#333" stroke="#333" stroke-width="3.5" stroke-miterlimit="10"/>
    <circle transform="rotate(-56.895 60.4 27.443)" cx="60.403" cy="27.444" fill="#e05164" stroke="#333"
            stroke-width="3.5" stroke-miterlimit="10" r="17.442"/>
    <path d="M63.389 51.104L38.421 36.689a3.298 3.298 0 0 1-1.207-4.504l2.392-4.143a3.298 3.298 0 0 1 4.504-1.207l24.968 14.416a3.298 3.298 0 0 1 1.207 4.504l-2.392 4.143a3.298 3.298 0 0 1-4.504 1.206z"
          fill="#666" stroke="#333" stroke-width="3.5" stroke-miterlimit="10"/>
    <path fill="none" stroke="#333" stroke-width="3.5" stroke-linecap="round" stroke-miterlimit="10"
          d="M41.257 16.39L79.55 38.499"/></svg>